<?xml version="1.0" encoding="utf-8"?>
<svg viewBox="0 0 500 500" xmlns="http://www.w3.org/2000/svg">
  <g id="Capa_2" transform="matrix(0.926898, 0, 0, 0.910399, -39.283127, -113.241386)" style=""/>
  <g id="Capa_4" transform="matrix(0.926898, 0, 0, 0.910399, -34.110771, -114.689644)" style="">
    <circle class="st0" cx="-285.517" cy="430.089" r="258.24" style="fill: rgb(255, 255, 255);" transform="matrix(1.014406, 0, 0, 1.029334, 595.630127, -40.076878)"/>
  </g>
  <g id="Capa_1" transform="matrix(0.9788, 0, 0, 0.963676, -46.820091, -129.273148)" style="">
    <g>
      <g>
        <path class="st1" d="M222.31,237.82l0.04-0.29c0,0,0.27-0.08,0.27-0.09c0.94,0.04,1.89,0.01,2.82,0.15 c3.81,0.55,5.41-0.85,4.99-4.87c-0.35-3.34-0.12-6.74-0.15-10.11l-0.06,0.06c2.39-0.17,4.85,0.32,7.32-0.63 c0.12-0.94,0.43-1.88,0.32-2.78c-0.44-3.58,1.37-4.53,4.53-4.14c0.8,0.1,1.62,0.01,2.43,0.01c8.18,0,8.18,0,8.28-8 c0,0-0.06,0.07-0.06,0.07c2.4,0.24,4.8,0.42,7.38-0.42c0-2.41,0-4.69,0-6.97c0,0-0.06,0.06-0.06,0.06 c7.62-0.14,15.24,0.51,22.85-0.37c3.24,1,7.45-1.16,9.78,1.41c2.38,2.63,0.75,6.74,0.92,10.2c0.12,2.37,1.16,3.19,3.31,2.89 c3.75-0.52,4.71,1.37,4.56,4.75c-0.18,4.19,0.06,8.4-0.05,12.6c-0.06,2.44,0.47,3.97,3.34,3.65c2.46-0.27,3.39,1.02,3.32,3.4 c-0.09,3.12,0.06,6.24-0.05,9.35c-0.08,2.32,0.59,3.64,3.19,3.41c2.79-0.25,4.81,0.34,4.44,3.92c-0.26,2.5,1.62,2.69,3.54,2.68 c1.86,0,3.32-0.38,3.09-2.66c-0.35-3.43,1.5-3.97,4.43-3.93c9.35,0.13,18.7-0.06,28.05,0.07c3.17,0.04,4.96-0.76,4.58-4.29 c-0.26-2.44,1.02-3.62,3.38-3.32c3.64,0.46,4.54-1.39,4.16-4.52c-0.33-2.77,0.41-4.52,3.69-4.12c2.09,0.25,2.86-0.83,2.85-2.89 c-0.01-3.11,0.2-6.22,0.31-9.34c2.59-0.02,5.19-0.04,7.78-0.06c0,0-0.06-0.06-0.06-0.06c-0.78,2.65-0.28,5.36-0.31,8.04 c-0.07,7.4-0.01,7.4,7.65,6.72c0,0-0.06-0.06-0.06-0.06c-0.6,6.75-0.6,6.75,7.37,8.61c0,7.04,0,14.18,0,21.36 c1.03,0.22,1.7,0.53,2.33,0.47c4.01-0.39,5.34,1.16,5.22,5.34c-0.32,11.11-0.1,22.24-0.1,33.37c0,6.4,0,6.39-6.31,6.8 c-0.24,0.02-0.46,0.23-1.26,0.65c0,6.44,0,13.19,0,19.93c-2.47-1.67-1.09-4.21-1.38-6.35c-0.21-1.54-0.07-3.16-2.26-3.04 c-2.39,0.13-2.94-1.11-3.01-3.23c-0.1-3.3-2.74-3.13-5.03-3.33c-2.5-0.22-2.99,1.27-2.81,3.31c0.23,2.49-0.94,3.39-3.36,3.26 c-2.57-0.13-5.15,0.03-7.73-0.04c-2.19-0.05-3.25,0.77-3.15,3.1c0.12,2.71-0.01,5.42,0,8.14c0.01,1.89-0.65,3.42-2.76,3.1 c-3.56-0.54-7.5,1.77-10.67-1.4c-0.23-0.23-0.21-0.79-0.17-1.18c0.45-3.83-2.04-4.14-4.84-4.09c-2.03,0.04-4.07,0.19-6.1,0.13 c-2.48-0.08-3.9,0.72-3.63,3.49c0.22,2.26-0.98,3.4-3.15,3.1c-4.6-0.64-5.69,1.71-5.24,5.68c0.15,1.34-0.09,2.72,0.05,4.06 c0.34,3.29-0.92,4.89-4.34,4.49c-3.04-0.36-3.58,1.35-3.54,3.95c0.1,7.19,0.01,14.37,0,21.56c-0.01,5,0.23,5.18,5.43,4.34 c-0.27,2-0.23,3.99,0.16,5.97c0,0,0.07-0.05,0.07-0.05c-15.23,0.01-30.46,0.03-45.69,0.04c0,0,0.05,0.06,0.06,0.06 c0.01-1.9,0.02-3.79,0.04-5.69c5.15,0.05,10.31,0.02,15.45,0.19c3.06,0.11,4.03-1.23,3.93-4.14c-0.09-2.57-0.26-4.77-3.66-4.35 c-2.82,0.35-3.94-0.84-3.89-3.65c0.05-2.57-0.79-4.58-4.01-4.27c-2.23,0.22-2.74-1.15-2.73-3.05c0.01-1.66-0.07-3.72-2.38-3.4 c-5.59,0.77-5.41-2.71-5.18-6.45c0.08-1.35,0.1-2.72,0-4.07c-0.2-2.59,0.85-3.84,3.52-3.57c2.92,0.3,4.41-0.93,4.08-3.96 c-0.25-2.34,0.53-3.73,3.09-3.5c2.74,0.25,3.62-1.16,3.52-3.65c-0.07-1.66,0.46-3.24,2.4-3.03c4.98,0.54,5.65-2.23,5.22-6.18 c-0.16-1.48-0.12-2.99-0.01-4.47c0.21-2.76-0.84-4.14-3.73-3.76c-2.95,0.39-3.79-1.18-3.76-3.82c0.04-2.98-0.16-5.97-0.16-8.95 c0-2.28-0.75-3.7-3.31-3.44c-2.86,0.28-3.49-1.33-3.26-3.76c0.09-0.94,0.03-1.9,0.03-2.85c-0.01-6.95-0.02-6.86-7.18-7.51 c-8.55-0.78-17.08,0.24-25.62,0.05c-2.68-0.06-4.58-0.41-4.23-3.72c0.23-2.2-0.83-3.24-3.08-3.21 c-5.29,0.06-10.58,0.05-15.87,0.05c-1.76,0-3.03,0.75-2.89,2.61c0.24,3.28-1.39,4.3-4.36,4.3c-1.95,0-2.59,1.46-2.31,3.1 c0.61,3.57-1.63,7.5,1.34,10.74c0.21,0.23,0.78,0.18,1.18,0.16c3.04-0.12,4.18,1.79,4.19,4.35c0.02,2.99,1.6,3.62,4.14,3.58 c4.75-0.07,9.49-0.02,14.24-0.01c1.69,0.01,3.11,0.12,3.39,2.46c0.7,5.87,0.81,5.85,6.92,5.88c1.63,0.01,3.26,0.01,4.88,0.07 c1.29,0.05,2.61,0.33,2.46,2c-0.34,3.66,1.46,4.79,4.83,4.63c2.65-0.12,2.39,2.12,2.51,3.8c0.13,1.67,0.02,3.64-2.26,3.52 c-3.33-0.17-4.85,1.02-5.17,4.45c-0.15,1.64-2.02,2.38-3.75,2.64c-1.16,0.17-2.47-0.29-3.88,1.22c0,2.92,0.01,6.29-0.01,9.66 c-0.01,1.37,0,3.16-1.88,2.96c-5.14-0.54-4.88,2.73-4.71,6.14c0.11,2.3,0.08,4.61,0.11,6.92c-4.62,0.03-9.24,0.06-13.86,0.1 c0,0,0.06,0.06,0.06,0.06c0.92-7.64,0.74-7.85-6.6-7.55c-0.26,0.01-0.52,0.11-0.78,0.17c0,0,0.06,0.06,0.06,0.06 c0.07-1.89,0.14-3.77,0.21-5.66c3.52,0.01,7.04,0,10.56,0.04c1.98,0.02,2.63-1.14,2.56-2.85c-0.06-1.55,0.34-3.92-1.92-3.79 c-5.25,0.3-4.71-3.09-4.64-6.39c0.03-1.76-0.01-3.52-0.05-5.28c-0.04-1.56-0.79-2.87-2.4-2.64c-5.39,0.78-5.21-2.64-5.02-6.25 c0.09-1.62-0.06-3.25,0.03-4.87c0.12-2.25-0.85-3.2-3.1-3.15c-3.65,0.09-7.31,0.06-10.97,0.08c-0.17-1.55-0.01-3.18-1.19-4.92 c-2.2,0-4.58,0-6.95,0c0,0,0.06,0.06,0.06,0.06c0.02-15.22,0.05-30.44,0.07-45.66c0,0-0.06,0.07-0.06,0.07 c0.81,0.06,1.62,0.17,2.43,0.19c5.48,0.08,5.47,0.06,5.52-5.26c0.05-5.69,0.12-11.38,0.18-17.07c0,0-0.07,0.07-0.07,0.07 c1.33-0.08,2.68-0.33,4-0.21c2.74,0.24,3.62-1.06,3.33-3.57C222.74,240.39,223.26,239,222.31,237.82z M257.61,236.68 c-13.53-1.83-15.11-0.59-14.16,10.9c0.04,0.54,0.08,1.08,0.21,1.6c0.24,1.02,0.92,1.92,1.94,1.75c4.68-0.78,5.19,1.83,5.36,5.61 c0.09,2.12,0.3,4.29,0.28,6.43c-0.02,2.56,0.51,4.26,3.59,3.95c2.7-0.27,4.07,1,3.96,3.79c-0.07,1.75,0.18,3.37,2.48,3.37 c5.83,0.02,11.65,0.02,17.48-0.01c1.21-0.01,2.13-0.5,2.12-1.91c-0.06-4.14,0.36-8.31-0.42-12.86c-5.46,1.13-8.01-0.8-7.1-6.33 c0.19-1.18-0.53-2.45-1.7-2.38c-4.57,0.28-6.32-2.05-5.88-6.2C258.76,243.57,258.76,243.57,257.61,236.68z M346.48,294.72 c6.13,1.07,6.17,1.07,7.5-4.69c0.48-2.09,1.92-2.41,3.65-2.33c2.39,0.11,2.9,1.8,2.67,3.69c-0.43,3.58,1.58,3.83,4.38,3.87 c3,0.05,3.72-1.33,3.57-3.95c-0.14-2.56-0.07-5.13-0.09-7.7c-0.01-1.51-0.47-2.76-2.21-2.78c-3.86-0.06-7.73-0.02-11.56-0.02 c-0.59,2.93,0.05,5.83-3.48,6.66C345.52,288.73,345.55,288.84,346.48,294.72z" style="fill: rgb(2, 145, 206);"/>
        <path class="st2" d="M225.22,561.8c-3.77,0-7.38,0-11.32,0c0,3.92,0,7.54,0,11.36c-15.48,0-30.64,0-46.03,0 c0-19.05,0-37.99,0-57.16c3.51-0.71,7.14-0.12,11.13-0.33c0,15.24,0,30.37,0,45.74c3.98,0,7.57,0,11.61,0 c0-15.08,0-30.19,0-45.52c4.04,0,7.65,0,11.67,0c0,15.19,0,30.3,0,45.59c4.02,0,7.62,0,11.46,0c0-15.19,0-30.22,0-45.46 c3.94-0.64,7.66-0.34,11.48-0.18C225.22,531.18,225.22,546.33,225.22,561.8z" style="fill: rgb(9, 9, 9);"/>
        <path class="st2" d="M443.88,527.26c0,11.58,0,22.8,0,34.44c-3.63,0-7.22,0-11.21,0c0,3.99,0,7.59,0,11.42 c-11.72,0-23.03,0-34.51,0c0-19.09,0-38.05,0-57.23c11.28,0,22.49,0,34.21,0c0,3.59,0,7.3,0,11.37 C436.49,527.26,440.09,527.26,443.88,527.26z M409.61,561.48c7.73,0,15.12,0,22.54,0c0-11.48,0-22.76,0-33.93 c-7.68,0-15.07,0-22.54,0C409.61,538.91,409.61,550,409.61,561.48z" style="fill: rgb(9, 9, 9);"/>
        <path class="st2" d="M398.09,437.73c3.64,0,7.29,0,11.18,0c0,15.48,0,30.71,0,46.12c-3.67,0-7.15,0-11.11,0 c0-7.48,0-14.99,0-22.77c-7.85,0-15.23,0-22.93,0c0,7.42,0,14.84,0,22.6c-4,0-7.69,0-11.66,0c0-15.09,0-30.22,0-45.74 c3.61,0,7.21,0,11.2,0c0-3.93,0-7.51,0-11.37c7.89,0,15.38,0,23.43,0c0,3.77,0,7.52,0,11.27c-7.66,0-15.32,0-23.2,0 c0.32,4.13-0.37,7.75,0.41,11.11c7.66,0,15.03,0,22.67,0C398.09,445.01,398.09,441.37,398.09,437.73z" style="fill: rgb(9, 9, 9);"/>
        <path class="st2" d="M156.51,426.4c11.34,0,22.56,0,34.14,0c0,3.71,0,7.32,0,11.27c3.97,0,7.59,0,11.44,0 c0,11.65,0,22.96,0,34.73c-3.67,0-7.26,0-11.24,0c0,4.03,0,7.63,0,11.42c-11.62,0-22.82,0-34.34,0 C156.51,464.89,156.51,445.86,156.51,426.4z M167.92,472.08c7.6,0,14.97,0,22.5,0c0-11.46,0-22.74,0-34.01 c-7.65,0-15.02,0-22.5,0C167.92,449.51,167.92,460.7,167.92,472.08z" style="fill: rgb(9, 9, 9);"/>
        <path class="st2" d="M282.72,561.67c-3.69,0-7.19,0-11.29,0c0,3.95,0,7.67,0,11.53c-8,0-15.41,0-23.12,0c0-3.77,0-7.38,0-11.33 c-3.88,0-7.47,0-11.3,0c0-11.65,0-22.98,0-34.56c3.63,0,7.26,0,11.13,0c0-3.88,0-7.5,0-11.39c7.77,0,15.29,0,23.2,0 c0,3.72,0,7.31,0,11.24c3.97,0,7.58,0,11.38,0C282.72,538.73,282.72,549.93,282.72,561.67z M271.13,527.54 c-7.83,0-15.21,0-22.63,0c0,11.44,0,22.63,0,33.82c7.69,0,15.18,0,22.63,0C271.13,549.94,271.13,538.84,271.13,527.54z" style="fill: rgb(9, 9, 9);"/>
        <path class="st2" d="M247.87,437.38c0.97,6.72,0.24,13.47,0.41,20.2c0.12,4.72,0.02,9.45,0.02,14.44c7.68,0,15.05,0,22.66,0 c0.55-3.56,0.31-7.15,0.14-11.13c-3.77,0-7.36,0-11.15,0c0-3.97,0-7.56,0-11.39c7.49,0,14.9,0,22.65,0c0,11.31,0,22.72,0,34.33 c-11.32,0-22.52,0-33.97,0c-0.91-3.59,0.02-7.4-0.58-11.42c-3.71,0-7.31,0-11.08,0c0-11.69,0-23.01,0-34.95c3.78,0,7.39,0,11,0 L247.87,437.38z" style="fill: rgb(9, 9, 9);"/>
        <path class="st2" d="M328.94,550.07c-7.44,0-14.87,0-22.74,0c0,7.83,0,15.33,0,22.96c-4.03,0.57-7.65,0.35-11.54,0.22 c0-19.17,0-38.18,0-57.37c11.31,0,22.51,0,34.13,0c0,3.8,0,7.67,0,11.55l0.1-0.11c-7.53,0-15.06,0-22.6,0c0,4,0,7.67,0,11.49 c7.74,0,15.16,0,22.59,0l-0.07-0.08c0.01,3.81,0.02,7.63,0.04,11.44L328.94,550.07z" style="fill: rgb(9, 9, 9);"/>
        <path class="st2" d="M363.3,561.65c8.06,0,15.37,0,22.99,0c0,3.88,0,7.58,0,11.5c-11.33,0-22.67,0-34.25,0 c0-19.13,0-38.08,0-57.24c3.59,0,7.21,0,11.27,0C363.3,531.01,363.3,546.12,363.3,561.65z" style="fill: rgb(9, 9, 9);"/>
        <path class="st2" d="M421.03,483.85c0-19.3,0-38.15,0-57.22c3.64-0.7,7.26-0.2,11.31-0.34c0,15.22,0,30.33,0,45.86 c7.84,0,15.23,0,22.76,0c0.68,4.14,0.25,7.86,0.26,11.7C443.8,483.85,432.6,483.85,421.03,483.85z" style="fill: rgb(9, 9, 9);"/>
        <path class="st2" d="M340.46,483.89c-4.16,0-7.64,0-11.44,0c0-15.25,0-30.37,0-45.64c-3.84-0.94-7.5-0.09-11.3-0.59 c-0.75-3.53-0.12-7.16-0.37-11.07c11.39,0,22.69,0,34.29,0c0,3.44,0,7.03,0,10.89c-3.37,0.97-7.19-0.22-11.18,0.68 C340.46,453.33,340.46,468.45,340.46,483.89z" style="fill: rgb(9, 9, 9);"/>
        <path class="st2" d="M396.32,333.86c0-6.75,0-13.49,0-19.94c0.8-0.42,1.03-0.64,1.26-0.65c6.31-0.41,6.31-0.4,6.31-6.8 c0-11.12-0.22-22.25,0.1-33.37c0.12-4.19-1.21-5.73-5.22-5.34c-0.63,0.06-1.29-0.25-2.33-0.47c0-7.18,0-14.33,0-21.36 c-7.97-1.86-7.97-1.86-7.37-8.61c2.28,0.13,4.55,0.26,6.9,0.4c1.08,2.34-0.07,4.87,0.82,7.46c2.18,0,4.43,0,7.16,0 c0,6.21,0.26,12.14-0.09,18.05c-0.24,4.07,0.85,5.91,5.1,5.11c0.65-0.12,1.34-0.02,2.34-0.02c0,14.93,0,29.74,0,44.84 c-2.36,0-4.62,0-7.25,0c0,7.68,0,15.08,0,22.71c-2.79,0-5.21,0-7.64,0l0.06,0.06C396.41,335.23,396.37,334.55,396.32,333.86z" style="fill: rgb(9, 9, 9);"/>
        <path class="st2" d="M294.52,483.79c0-19.25,0-38.18,0-57.31c3.75,0,7.36,0,11.22,0c0,19.03,0,38.05,0,57.31 C302.11,483.79,298.53,483.79,294.52,483.79z" style="fill: rgb(9, 9, 9);"/>
        <path class="st2" d="M225.2,483.87c-3.75,0-7.23,0-11.06,0c0-19,0-38.02,0-57.32c3.51,0,7.2,0,11.06,0 C225.2,445.57,225.2,464.5,225.2,483.87z" style="fill: rgb(9, 9, 9);"/>
        <path class="st2" d="M381.85,222.68c-2.59,0.02-5.19,0.04-7.78,0.06c-0.93-2.41,0.42-5.1-1.01-7.82c-4.58,0-9.25,0-14.07,0 c-0.16-2.59-0.29-4.83-0.42-6.96c-2.43-1.34-5.06,0.23-7.45-1.26c0-2.08,0-4.22,0-6.86c-7.59,0-14.94,0-22.29,0 c-0.28-2.78-0.44-5.06,0.04-7.33l-0.06,0.07c7.3,0,14.59,0,21.99,0c1.08,2.16,0.05,4.53,0.75,6.86c2.1,1.19,4.67-0.22,7.25,0.93 c0,2.12,0,4.37,0,6.86c5.04,0,9.74,0,14.41,0c1.23,2.49,0.05,5.01,0.91,7.34c2.15,1.03,4.53-0.01,6.9,0.69 C382.17,217.59,380.81,220.3,381.85,222.68z" style="fill: rgb(9, 9, 9);"/>
        <path class="st2" d="M247.96,437.47c0-3.61,0-7.22,0-11.01c11.93,0,23.24,0,34.76,0c0,3.75,0,7.34,0,11.4 c-11.71-0.37-23.28,0.49-34.85-0.48C247.87,437.38,247.96,437.47,247.96,437.47z" style="fill: rgb(9, 9, 9);"/>
        <path class="st2" d="M283.29,192.59c0-2.43,0-4.86,0-7.53c15.01,0,29.86,0,45.1,0c0.14,2.5,0.28,5.01,0.41,7.52 c0,0,0.06-0.07,0.06-0.07c-15.22,0-30.44-0.01-45.66-0.01L283.29,192.59z" style="fill: rgb(9, 9, 9);"/>
        <path class="st2" d="M207.57,267.49c-0.02,15.22-0.05,30.44-0.07,45.66c-2.29,0-4.57,0-7.07,0c0-15.14,0-30.01,0-44.98 C202.72,267.13,205.25,268.32,207.57,267.49z" style="fill: rgb(9, 9, 9);"/>
        <path class="st2" d="M283.18,388.86c15.23-0.01,30.46-0.03,45.69-0.04c-0.14,2.27-0.27,4.55-0.43,7.12c-14.95,0-29.87,0-45.26,0 C283.18,393.63,283.18,391.25,283.18,388.86z" style="fill: rgb(9, 9, 9);"/>
        <path class="st2" d="M328.85,550.17c3.65,0,7.3,0,11.25,0c0,7.67,0,15.18,0,22.92c-3.53,0.54-7.13,0.24-11.16,0.16 c0-7.84,0-15.5,0-23.17C328.94,550.07,328.85,550.17,328.85,550.17z" style="fill: rgb(9, 9, 9);"/>
        <path class="st2" d="M207.43,313.09c2.38,0,4.76,0,6.95,0c1.17,1.74,1.02,3.36,1.19,4.92c0,4.83,0,9.67,0,14.5 c0.3,3.75,1.25,4.15,6.49,2.76c1.06,1.03,0.82,2.39,0.96,3.66c-0.02,1.45-0.05,2.89-0.07,4.34l0.01-0.01c-2.41,0-4.81,0-7.5,0 c0-2.44,0-4.69,0-6.89c-2.53-1.15-5.04,0.07-8.02-1.09C207.43,328.04,207.43,320.56,207.43,313.09z" style="fill: rgb(9, 9, 9);"/>
        <path class="st2" d="M253.11,207.13c-0.1,8-0.1,8-8.28,8c-0.81,0-1.63,0.08-2.43-0.01c-3.15-0.39-4.96,0.56-4.53,4.14 c0.11,0.89-0.2,1.84-0.32,2.78c-2.47,0.95-4.93,0.46-7.32,0.63c0-2.42,0-4.84,0-7.55c2.62,0,4.88,0,7.09,0 c1.18-2.54-0.06-5.08,1.14-7.99C243.21,207.13,248.16,207.13,253.11,207.13z" style="fill: rgb(9, 9, 9);"/>
        <path class="st2" d="M215.63,245.4c-0.06,5.69-0.14,11.38-0.18,17.07c-0.04,5.33-0.04,5.34-5.52,5.26 c-0.81-0.01-1.62-0.12-2.43-0.19c0-7.29,0-14.58,0-21.93C210.55,244.94,213.1,245.31,215.63,245.4z" style="fill: rgb(9, 9, 9);"/>
        <path class="st2" d="M381.72,358.66c-0.21,2.39-0.42,4.79-0.65,7.43c-2.4,0-4.67,0-7.23,0c0,2.53,0,4.81,0,7.3 c-5.13,0-9.99,0-14.84,0c0,0,0.01,0,0.01,0c-0.13-2.02-0.25-4.04-0.38-6.06c2.73-2.92,6.25-0.5,9.29-1.38 c1.8-0.28,3.71,0.58,5.41-0.44c0.76-1.64,0.17-3.25,0.24-4.82c0.06-1.43,0.65-2.2,2.23-2.11c2,0.12,4.01,0.1,6.01,0.15 L381.72,358.66z" style="fill: rgb(9, 9, 9);"/>
        <path class="st2" d="M283.27,383.23c-0.01,1.9-0.02,3.79-0.04,5.69c-7.38,0-14.77,0-22.7,0c0-2.74,0-5.1,0-7.46 c0,0-0.09,0.04-0.09,0.04c6.85-0.15,13.69-0.29,20.54-0.44C282.25,381.26,283.19,381.79,283.27,383.23z" style="fill: rgb(9, 9, 9);"/>
        <path class="st2" d="M283.22,199.49c-7.6,0.89-15.23,0.24-22.85,0.37c0-2.27,0-4.54,0-7.27c7.79,0,15.35,0,22.92,0 c0,0-0.09-0.09-0.09-0.09C283.21,194.83,283.22,197.16,283.22,199.49z" style="fill: rgb(9, 9, 9);"/>
        <path class="st2" d="M328.8,388.88c-0.39-1.98-0.43-3.97-0.16-5.98c-0.18-1.86,1.53-1.68,2.49-2.31c1.48,0.88,3.12,0.7,4.74,0.71 c5.13,0.04,10.25,0.1,15.38,0.16c0,2.27,0,4.54,0,7.41C343.51,388.88,336.16,388.88,328.8,388.88z" style="fill: rgb(9, 9, 9);"/>
        <path class="st1" d="M351.25,381.46c-5.13-0.05-10.25-0.12-15.38-0.16c-1.62-0.01-3.25,0.17-4.74-0.71 c0.14-5.58,0.14-5.59,5.53-5.59c4.72,0.01,9.43,0.06,14.15,0.09c0.13,2.14,0.27,4.28,0.4,6.42L351.25,381.46z" style="fill: rgb(2, 145, 206);"/>
        <path class="st2" d="M328.79,527.43c3.73,0,7.45,0,11.39,0c0,3.67,0,7.25,0,11.3c-3.7,0-7.54,0-11.37,0c0,0,0.07,0.08,0.07,0.08 c0-3.83,0.01-7.66,0.01-11.49L328.79,527.43z" style="fill: rgb(9, 9, 9);"/>
        <path class="st2" d="M389.1,343.22c0,4.93,0,9.86,0,15.44c-2.69,0-5.04,0-7.38,0l0.09,0.07c-0.93-5.03-0.39-10.05-0.3-15.47 c2.83,0,5.23,0,7.63,0L389.1,343.22z" style="fill: rgb(9, 9, 9);"/>
        <path class="st2" d="M230.51,353.11c-0.07,1.89-0.14,3.77-0.21,5.66c-2.27,0-4.54,0-7.35,0c0-5.4,0-10.46,0-15.52 c0,0-0.01,0.01-0.01,0.01c2.12-0.06,4.24-0.11,6.36-0.17C231.63,346.2,229.63,349.83,230.51,353.11z" style="fill: rgb(9, 9, 9);"/>
        <path class="st2" d="M237.57,366.04c4.62-0.03,9.24-0.06,13.86-0.1c0.89,0.09,1.71,0.27,1.76,1.41 c-0.04,2.02-0.08,4.04-0.12,6.06l-0.05,0.04c-4.92,0-9.84,0-14.91,0C237.92,370.77,237.74,368.4,237.57,366.04z" style="fill: rgb(9, 9, 9);"/>
        <path class="st2" d="M230.29,222.61c0.03,3.37-0.2,6.77,0.15,10.11c0.42,4.02-1.18,5.42-4.99,4.87c-0.93-0.13-1.88-0.1-2.82-0.15 c0-4.81,0-9.63,0-14.84C225.53,222.61,227.91,222.61,230.29,222.61z" style="fill: rgb(9, 9, 9);"/>
        <path class="st2" d="M389.14,237.38c-7.67,0.68-7.72,0.68-7.65-6.72c0.02-2.68-0.48-5.39,0.31-8.04c2.26,0,4.53,0,7.34,0 C389.14,227.75,389.14,232.56,389.14,237.38z" style="fill: rgb(9, 9, 9);"/>
        <path class="st2" d="M260.54,381.46c-2.35-0.15-4.71-0.3-7.51-0.48c0-2.58,0-5.05,0-7.53c0,0,0.05-0.04,0.05-0.04 c2.35,0.14,4.76-0.29,7.38,0.6c0,2.5,0,5,0,7.5L260.54,381.46z" style="fill: rgb(9, 9, 9);"/>
        <path class="st2" d="M351.22,381.52c-0.13-2.14-0.27-4.28-0.4-6.42c0.48-1.67,1.94-1.57,3.22-1.81c1.66,0.04,3.31,0.07,4.97,0.11 c0,0-0.01,0-0.01,0c-0.11,2.39-0.22,4.77-0.34,7.21C356.25,381.91,353.58,380.57,351.22,381.52z" style="fill: rgb(9, 9, 9);"/>
        <path class="st2" d="M230.25,358.71c0.26-0.06,0.52-0.16,0.78-0.17c7.34-0.3,7.52-0.09,6.6,7.55c-2.27,0-4.53,0-7.39,0 C230.25,363.45,230.25,361.08,230.25,358.71z" style="fill: rgb(9, 9, 9);"/>
        <path class="st2" d="M396.4,335.86c0,2.36,0,4.72,0,7.36c-2.61,0-4.96,0-7.3,0c0,0,0.04,0.04,0.04,0.04c0-2.33,0-4.67,0-7.34 c2.61,0,4.97,0,7.32,0L396.4,335.86z" style="fill: rgb(9, 9, 9);"/>
        <path class="st2" d="M260.44,199.81c0,2.28,0,4.56,0,6.97c-2.58,0.84-4.98,0.66-7.38,0.42c0-2.28,0-4.56,0-7.39 C255.67,199.81,258.05,199.81,260.44,199.81z" style="fill: rgb(9, 9, 9);"/>
        <path class="st2" d="M222.31,237.82c0.95,1.18,0.43,2.57,0.58,3.87c0.29,2.51-0.59,3.81-3.33,3.57c-1.32-0.12-2.67,0.13-4,0.21 c0-2.24,0-4.49,0-6.9C217.61,237.44,220.12,238.81,222.31,237.82z" style="fill: rgb(9, 9, 9);"/>
        <path class="st3" d="M283.22,199.49c0-2.33-0.01-4.66-0.01-6.99c15.22,0,30.44,0.01,45.66,0.01c-0.48,2.27-0.32,4.55-0.04,7.33 c7.35,0,14.7,0,22.29,0c0,2.64,0,4.78,0,6.86c2.39,1.49,5.02-0.09,7.45,1.26c0.13,2.13,0.26,4.37,0.42,6.96 c4.82,0,9.49,0,14.07,0c1.43,2.72,0.08,5.41,1.01,7.82c-0.12,3.11-0.33,6.22-0.31,9.34c0.01,2.06-0.77,3.14-2.85,2.89 c-3.28-0.4-4.02,1.36-3.69,4.12c0.38,3.14-0.52,4.98-4.16,4.52c-2.36-0.3-3.64,0.88-3.38,3.32c0.38,3.54-1.41,4.33-4.58,4.29 c-9.35-0.13-18.7,0.05-28.05-0.07c-2.93-0.04-4.78,0.5-4.43,3.93c0.23,2.28-1.23,2.66-3.09,2.66c-1.93,0-3.8-0.19-3.54-2.68 c0.37-3.58-1.65-4.17-4.44-3.92c-2.6,0.23-3.27-1.09-3.19-3.41c0.11-3.11-0.05-6.24,0.05-9.35c0.07-2.38-0.86-3.67-3.32-3.4 c-2.87,0.32-3.41-1.21-3.34-3.65c0.11-4.2-0.13-8.41,0.05-12.6c0.15-3.38-0.81-5.27-4.56-4.75c-2.15,0.3-3.19-0.52-3.31-2.89 c-0.18-3.45,1.45-7.57-0.92-10.2C290.67,198.33,286.47,200.49,283.22,199.49z" style="fill: rgb(207, 254, 7);"/>
        <path class="st3" d="M253.2,367.35c-0.06-1.13-0.87-1.32-1.76-1.41c-0.03-2.31,0.01-4.62-0.11-6.92 c-0.17-3.41-0.43-6.68,4.71-6.14c1.87,0.2,1.87-1.59,1.88-2.96c0.02-3.37,0.01-6.73,0.01-9.66c1.4-1.51,2.72-1.05,3.88-1.22 c1.73-0.25,3.6-1,3.75-2.64c0.32-3.42,1.84-4.61,5.17-4.45c2.28,0.11,2.39-1.85,2.26-3.52c-0.13-1.68,0.13-3.92-2.51-3.8 c-3.37,0.15-5.17-0.97-4.83-4.63c0.15-1.67-1.17-1.95-2.46-2c-1.63-0.06-3.25-0.06-4.88-0.07c-6.1-0.02-6.21-0.01-6.92-5.88 c-0.28-2.35-1.69-2.46-3.39-2.46c-4.75-0.02-9.5-0.07-14.24,0.01c-2.54,0.04-4.12-0.59-4.14-3.58c-0.01-2.56-1.15-4.47-4.19-4.35 c-0.4,0.02-0.97,0.06-1.18-0.16c-2.96-3.24-0.72-7.17-1.34-10.74c-0.28-1.63,0.36-3.1,2.31-3.1c2.97,0,4.6-1.02,4.36-4.3 c-0.13-1.85,1.13-2.6,2.89-2.61c5.29-0.01,10.58,0,15.87-0.05c2.25-0.03,3.31,1.01,3.08,3.21c-0.35,3.31,1.55,3.66,4.23,3.72 c8.54,0.2,17.07-0.83,25.62-0.05c7.16,0.66,7.17,0.57,7.18,7.51c0,0.95,0.06,1.91-0.03,2.85c-0.23,2.43,0.4,4.04,3.26,3.76 c2.56-0.25,3.31,1.17,3.31,3.44c0,2.98,0.2,5.97,0.16,8.95c-0.03,2.64,0.81,4.21,3.76,3.82c2.88-0.38,3.94,1,3.73,3.76 c-0.11,1.48-0.15,3,0.01,4.47c0.43,3.94-0.24,6.72-5.22,6.18c-1.94-0.21-2.47,1.37-2.4,3.03c0.1,2.49-0.78,3.9-3.52,3.65 c-2.55-0.23-3.34,1.16-3.09,3.5c0.33,3.03-1.16,4.26-4.08,3.96c-2.67-0.27-3.71,0.98-3.52,3.57c0.1,1.35,0.08,2.72,0,4.07 c-0.23,3.74-0.41,7.23,5.18,6.45c2.32-0.32,2.39,1.75,2.38,3.4c-0.01,1.9,0.5,3.27,2.73,3.05c3.21-0.31,4.05,1.7,4.01,4.27 c-0.05,2.8,1.07,3.99,3.89,3.65c3.39-0.42,3.57,1.78,3.66,4.35c0.1,2.91-0.87,4.25-3.93,4.14c-5.15-0.18-10.3-0.14-15.45-0.19 c-0.08-1.44-1.02-1.97-2.27-2.16c-0.1-3.49-0.22-6.99-0.3-10.48c-0.04-1.61-0.31-3.39-2.26-3.12c-6.17,0.86-5.6-3.22-5.52-7.08 c0.03-1.35-0.04-2.71-0.02-4.06c0.04-2.37-0.96-3.47-3.46-3.22c-2.23,0.22-4.25,0.62-3.79,3.48c0.51,3.19-0.91,4.17-3.83,4.01 c-2.04-0.11-4.03,0.26-3.79,2.95C258.41,367.49,256.05,367.66,253.2,367.35z M276.53,309.54c2.36,0.2,4.41,0.1,4.31-3.18 c-0.08-2.54,0.2-5.17-3.63-4.65c-3.07,0.41-4.04-0.95-3.97-3.92c0.08-3.5-2.77-2.47-4.77-2.63c-2.37-0.2-2.99,1.09-3,3.23 c-0.01,2.34,0.78,3.72,3.29,3.39c3.21-0.42,4.4,0.91,4.18,4.1C272.78,308.19,273.77,309.86,276.53,309.54z" style="fill: rgb(207, 254, 7);"/>
        <path class="st3" d="M396.46,335.92c-2.35,0-4.71,0-7.32,0c0,2.67,0,5,0,7.34c-2.4,0-4.8,0-7.63,0 c-0.09,5.42-0.63,10.44,0.3,15.47c-2-0.04-4.01-0.03-6.01-0.15c-1.58-0.1-2.17,0.68-2.23,2.11c-4.12-0.64-6.06,1.05-5.65,5.27 c-3.03,0.88-6.56-1.54-9.29,1.38c-4.87,0.27-4.87,0.27-4.59,5.95c-1.28,0.23-2.74,0.14-3.22,1.81 c-4.72-0.03-9.43-0.08-14.15-0.09c-5.39-0.01-5.39,0.01-5.53,5.59c-0.96,0.63-2.66,0.45-2.49,2.31c-5.2,0.84-5.44,0.66-5.43-4.34 c0.01-7.19,0.1-14.38,0-21.56c-0.04-2.6,0.5-4.31,3.54-3.95c3.42,0.41,4.69-1.2,4.34-4.49c-0.14-1.34,0.1-2.72-0.05-4.06 c-0.45-3.97,0.64-6.32,5.24-5.68c2.17,0.3,3.37-0.84,3.15-3.1c-0.27-2.76,1.14-3.57,3.63-3.49c2.03,0.06,4.06-0.09,6.1-0.13 c2.8-0.05,5.3,0.26,4.84,4.09c-0.05,0.39-0.06,0.96,0.17,1.18c3.17,3.17,7.11,0.85,10.67,1.4c2.11,0.32,2.77-1.21,2.76-3.1 c-0.01-2.71,0.11-5.43,0-8.14c-0.1-2.33,0.96-3.16,3.15-3.1c2.57,0.06,5.16-0.1,7.73,0.04c2.42,0.13,3.59-0.77,3.36-3.26 c-0.19-2.05,0.31-3.53,2.81-3.31c2.29,0.2,4.93,0.03,5.03,3.33c0.07,2.12,0.62,3.36,3.01,3.23c2.19-0.12,2.05,1.5,2.26,3.04 c0.29,2.14-1.1,4.68,1.38,6.35C396.37,334.55,396.41,335.23,396.46,335.92z" style="fill: rgb(207, 254, 7);"/>
        <path class="st3" d="M257.61,236.68c1.15,6.89,1.15,6.89,8.13,7.72c-0.44,4.14,1.32,6.48,5.88,6.2c1.17-0.07,1.89,1.2,1.7,2.38 c-0.91,5.52,1.64,7.45,7.1,6.33c0.78,4.55,0.37,8.72,0.42,12.86c0.02,1.41-0.91,1.91-2.12,1.91c-5.83,0.03-11.65,0.03-17.48,0.01 c-2.3-0.01-2.55-1.63-2.48-3.37c0.11-2.79-1.26-4.06-3.96-3.79c-3.08,0.3-3.6-1.39-3.59-3.95c0.01-2.14-0.19-4.31-0.28-6.43 c-0.16-3.78-0.68-6.39-5.36-5.61c-1.02,0.17-1.7-0.73-1.94-1.75c-0.12-0.52-0.16-1.07-0.21-1.6 C242.5,236.09,244.08,234.85,257.61,236.68z" style="fill: rgb(207, 254, 7);"/>
        <path class="st3" d="M230.51,353.11c-0.89-3.28,1.11-6.91-1.21-10.02c0.93-5.96-3.72-3.49-6.29-4.17 c-0.13-1.27,0.1-2.63-0.96-3.66c0.38-2.01-0.79-2.61-2.48-2.67c-1.33-0.05-2.67-0.06-4-0.08c0-4.83,0-9.67,0-14.5 c3.66-0.02,7.31,0.02,10.97-0.08c2.25-0.06,3.22,0.9,3.1,3.15c-0.09,1.62,0.06,3.25-0.03,4.87c-0.2,3.61-0.37,7.02,5.02,6.25 c1.61-0.23,2.37,1.07,2.4,2.64c0.04,1.76,0.08,3.52,0.05,5.28c-0.06,3.3-0.6,6.69,4.64,6.39c2.26-0.13,1.86,2.25,1.92,3.79 c0.07,1.71-0.58,2.88-2.56,2.85C237.56,353.11,234.04,353.12,230.51,353.11z" style="fill: rgb(207, 254, 7);"/>
        <path class="st3" d="M346.48,294.72c-0.93-5.88-0.96-5.99,4.44-7.25c3.53-0.82,2.89-3.73,3.48-6.66c3.83,0,7.7-0.04,11.56,0.02 c1.74,0.03,2.2,1.27,2.21,2.78c0.02,2.57-0.06,5.14,0.09,7.7c0.15,2.63-0.57,4-3.57,3.95c-2.8-0.04-4.82-0.3-4.38-3.87 c0.23-1.9-0.28-3.58-2.67-3.69c-1.73-0.08-3.17,0.24-3.65,2.33C352.64,295.79,352.6,295.78,346.48,294.72z" style="fill: rgb(207, 254, 7);"/>
        <path class="st1" d="M223.02,338.92c2.57,0.68,7.22-1.78,6.29,4.17c-2.12,0.06-4.24,0.11-6.37,0.17 C222.97,341.82,222.99,340.37,223.02,338.92z" style="fill: rgb(2, 145, 206);"/>
        <path class="st1" d="M215.57,332.5c1.33,0.03,2.67,0.03,4,0.08c1.7,0.07,2.86,0.66,2.48,2.67 C216.82,336.65,215.87,336.25,215.57,332.5z" style="fill: rgb(2, 145, 206);"/>
        <path class="st1" d="M367.91,365.96c-0.41-4.22,1.53-5.91,5.65-5.27c-0.07,1.57,0.51,3.18-0.24,4.82 C371.62,366.55,369.71,365.68,367.91,365.96z" style="fill: rgb(2, 145, 206);"/>
        <path class="st1" d="M354.04,373.29c-0.29-5.68-0.29-5.68,4.59-5.95c0.13,2.02,0.25,4.04,0.38,6.06 C357.35,373.37,355.69,373.33,354.04,373.29z" style="fill: rgb(2, 145, 206);"/>
        <path class="st1" d="M253.2,367.35c2.85,0.31,5.21,0.14,4.85-3.81c-0.25-2.69,1.75-3.06,3.79-2.95c2.92,0.16,4.33-0.82,3.83-4.01 c-0.45-2.86,1.57-3.25,3.79-3.48c2.5-0.25,3.5,0.85,3.46,3.22c-0.02,1.35,0.05,2.71,0.02,4.06c-0.08,3.86-0.65,7.94,5.52,7.08 c1.94-0.27,2.22,1.51,2.26,3.12c0.08,3.5,0.21,6.99,0.3,10.48c-6.86,0.14-13.7,0.29-20.55,0.43c0-2.5,0-5,0-7.5 c-2.62-0.9-5.02-0.46-7.38-0.6C253.12,371.39,253.16,369.37,253.2,367.35z" style="fill: rgb(2, 145, 206);"/>
        <path class="st1" d="M276.53,309.54c-2.76,0.32-3.74-1.35-3.58-3.67c0.22-3.19-0.97-4.52-4.18-4.1c-2.52,0.33-3.3-1.05-3.29-3.39 c0.01-2.14,0.62-3.43,3-3.23c1.99,0.17,4.84-0.87,4.77,2.63c-0.07,2.97,0.91,4.33,3.97,3.92c3.83-0.51,3.55,2.11,3.63,4.65 C280.93,309.65,278.88,309.74,276.53,309.54z" style="fill: rgb(2, 145, 206);"/>
      </g>
    </g>
  </g>
  <g id="Capa_3" class="st4" transform="matrix(0.926898, 0, 0, 0.910399, -39.283127, -113.241386)" style="display: none;">
    <text transform="matrix(1 0 0 1 158.379 477.2493)" class="st5 st6 st7" style="white-space: pre; font-family: BebasNeue-Regular; font-size: 250px; line-height: 400px; perspective-origin: 255.938px 0px;">GEN</text>
  </g>
</svg>